<?xml version="1.0" encoding="utf-8"?>
<!-- Generator: Adobe Illustrator 23.0.1, SVG Export Plug-In . SVG Version: 6.00 Build 0)  -->
<svg version="1.1" id="Layer_1" xmlns="http://www.w3.org/2000/svg" xmlns:xlink="http://www.w3.org/1999/xlink" x="0px" y="0px"
	 viewBox="0 0 200 80.7" style="enable-background:new 0 0 200 80.7;" xml:space="preserve">
<style type="text/css">
	.st0{fill:#CB007B;}
	.st1{fill:#00A7E1;}
	.st2{fill:#7B868C;}
</style>
<g>
	<g id="XMLID_976_">
		<path id="XMLID_991_" class="st0" d="M146.3,34.2v22.4c0,0.4,0.4,0.8,0.8,0.8h1c0.4,0,0.8-0.4,0.8-0.8V45.9h9.9
			c0.4,0,0.8-0.4,0.8-0.8v-1c0-0.7-0.6-0.8-1.3-0.8h-9.4v-7.9h10.2c1.5,0,2.7-1.1,2.9-2.6h-14.4C146.9,32.8,146.3,33.4,146.3,34.2z"
			/>
		<path id="XMLID_988_" class="st0" d="M138.6,19.2V5.4c0-3-2.4-5.4-5.4-5.4h-5c-3,0-5.4,2.4-5.4,5.4v13.7c0,3,2.4,5.4,5.4,5.4h5
			C136.2,24.5,138.6,22.1,138.6,19.2z M125.5,19.2V5.4c0-1.6,1.2-2.8,2.8-2.8h5c1.6,0,2.8,1.2,2.8,2.8v13.7c0,1.5-1.3,2.8-2.8,2.8
			h-5C126.8,21.9,125.5,20.7,125.5,19.2z"/>
		<path id="XMLID_985_" class="st0" d="M159.9,17.5c0-2.4-1.3-4.7-3.3-6l-0.4-0.2l0.3-0.3c1.4-1.3,2.1-3,2.1-4.8
			c0-1.9-0.8-3.5-2.2-4.7c-1.2-1-2.9-1.5-4.7-1.5h-7.5c-0.7,0-1.3,0.6-1.3,1.3v22c0,0.7,0.6,1.3,1.3,1.3h8.6
			C156.7,24.5,159.9,21.4,159.9,17.5z M157.2,18.4c-0.4,2-2.3,3.5-4.5,3.5h-7.1V2.6h6.2c2,0,4.3,1,4.3,3.6c0,2.3-1.9,4.2-4.3,4.2
			H149c-0.2,0-0.3,0.1-0.3,0.3v1.9c0,0.2,0.1,0.3,0.3,0.3h3.8c1.3,0,2.6,0.6,3.4,1.6C157.1,15.7,157.4,17.1,157.2,18.4z"/>
		<path id="XMLID_984_" class="st0" d="M87,5.4v13.7c0,3,2.4,5.4,5.4,5.4h4.9c3,0,5.4-2.4,5.4-5.4v-7.4c0-0.7-0.6-1.3-1.3-1.3h-6.6
			c-0.4,0-0.8,0.3-0.8,0.8v1c0,0.4,0.3,0.8,0.8,0.8h5.3v6.1c0,1.5-1.2,2.8-2.8,2.8h-5c-1.5,0-2.8-1.2-2.8-2.8V5.4
			c0-1.6,1.2-2.8,2.8-2.8h7.4c1.5,0,2.7-1.1,2.9-2.6H92.4C89.4,0,87,2.4,87,5.4z"/>
		<path id="XMLID_983_" class="st0" d="M120.1,33.4V52c0,1.5-1.2,2.8-2.8,2.8h-5c-1.5,0-2.8-1.2-2.8-2.8l0-18.6
			c0-0.3-0.3-0.6-0.6-0.6h-1.4c-0.3,0-0.6,0.3-0.6,0.6V52c0,3,2.4,5.4,5.4,5.4h5c3,0,5.4-2.4,5.4-5.4V33.4c0-0.3-0.3-0.6-0.6-0.6
			h-1.4C120.3,32.8,120.1,33.1,120.1,33.4z"/>
		<path id="XMLID_982_" class="st0" d="M179,24V5.4c0-1.5-1.2-2.8-2.8-2.8h-5c-1.5,0-2.8,1.2-2.8,2.8l0,18.6c0,0.3-0.3,0.6-0.6,0.6
			h-1.4c-0.3,0-0.6-0.3-0.6-0.6V5.4c0-3,2.4-5.4,5.4-5.4h5c3,0,5.4,2.4,5.4,5.4V24c0,0.3-0.3,0.6-0.6,0.6h-1.4
			C179.3,24.5,179,24.3,179,24z"/>
		<path id="XMLID_981_" class="st0" d="M117.7,21.9h-8.6V0.8c0-0.4-0.3-0.8-0.8-0.8h-1c-0.4,0-0.8,0.3-0.8,0.8v22.5
			c0,0.7,0.6,1.3,1.3,1.3h12.8C120.5,23.1,119.2,21.9,117.7,21.9z"/>
		<path id="XMLID_980_" class="st0" d="M197.1,21.9h-8.6V0.8c0-0.4-0.3-0.8-0.8-0.8h-1c-0.4,0-0.8,0.3-0.8,0.8v22.5
			c0,0.7,0.6,1.3,1.3,1.3H200C199.8,23.1,198.6,21.9,197.1,21.9z"/>
		<path id="XMLID_979_" class="st0" d="M138.1,48l0.8-0.2c1-0.3,2-0.9,2.6-1.8c0.8-1,1.2-2.2,1.2-3.4v-4.3c0-3-2.4-5.4-5.4-5.4h-9.1
			c-0.7,0-1.3,0.6-1.3,1.3v22.5c0,0.4,0.3,0.8,0.8,0.8h1c0.4,0,0.8-0.3,0.8-0.8V35.4h7.7c1.6,0,2.8,1.2,2.8,2.8v4.3
			c0,1.5-1.2,2.8-2.8,2.8H132v0.5c0,1.2,1,2.1,2.1,2.1h1.1l4.7,9c0.1,0.3,0.4,0.4,0.7,0.4h1.2c0.6,0,1-0.6,0.7-1.1L138.1,48z"/>
		<path id="XMLID_978_" class="st0" d="M97.4,43.3h-4.9c-1.5,0-2.8-1.2-2.8-2.8v-2.2c0-1.6,1.3-2.8,2.8-2.8h4.1
			c1.6,0,2.8,1.3,2.8,2.8l0,0.5c0,0.4,0.3,0.8,0.8,0.8h1c0.4,0,0.8-0.3,0.8-0.8l0-0.5c0-3-2.4-5.4-5.4-5.4h-4.1
			c-3,0-5.4,2.4-5.4,5.4v2.2c0,3,2.4,5.4,5.4,5.4h4.9c1.5,0,2.8,1.3,2.8,2.8V52c0,1.5-1.2,2.8-2.8,2.8h-5c-1.5,0-2.8-1.3-2.8-2.8
			l0-1.8c0-0.4-0.3-0.8-0.8-0.8h-1c-0.4,0-0.8,0.3-0.8,0.8V52c0,3,2.4,5.4,5.4,5.4h5c3,0,5.4-2.4,5.4-5.4v-3.3
			C102.7,45.7,100.3,43.3,97.4,43.3z"/>
		<path id="XMLID_977_" class="st0" d="M171.2,12.3v-1c0-0.4,0.3-0.8,0.8-0.8l7.1,0v2.6H172C171.6,13.1,171.2,12.7,171.2,12.3z"/>
	</g>
	<g id="XMLID_972_">
		<path id="XMLID_975_" class="st0" d="M0,2.7v28.1c0,0.4,0.3,0.8,0.8,0.8h13.7c0.4,0,0.8-0.3,0.8-0.8V15.3h44.1
			c6.3,0,11.5-5.1,11.5-11.5V0l-68,0C1.2,0,0,1.2,0,2.7z"/>
		<path id="XMLID_974_" class="st1" d="M34.3,31.6c-1.5,0-2.7,1.2-2.7,2.7v9.8c0,1.5,1.2,2.7,2.7,2.7h18.5c0.7,0,1.4,0.3,1.9,0.8
			l16.1-16.1H34.3z"/>
		<path id="XMLID_973_" class="st0" d="M54.9,47.8c0.4,0.5,0.6,1.1,0.6,1.7v28.8H68c1.5,0,2.7-1.2,2.7-2.7V31.6L54.7,47.6
			C54.7,47.7,54.8,47.8,54.9,47.8z"/>
	</g>
	<g>
		<g>
			<path class="st2" d="M89,78.8h-2.2v-7.4H89c0.8,0,1.4,0.1,1.8,0.2c0.4,0.1,0.8,0.3,1.1,0.6c0.3,0.3,0.5,0.7,0.6,1.1
				c0.1,0.5,0.2,1.1,0.2,1.8c0,1.3-0.3,2.2-0.9,2.8C91.2,78.5,90.3,78.8,89,78.8z M91.1,72.9c-0.2-0.2-0.4-0.4-0.8-0.5
				c-0.3-0.1-0.8-0.1-1.4-0.1h-1.2v5.6H89c1,0,1.7-0.2,2-0.6c0.4-0.4,0.6-1.1,0.6-2.1c0-0.6,0-1-0.1-1.4
				C91.4,73.3,91.3,73.1,91.1,72.9z"/>
			<path class="st2" d="M95,71.9h-1v-1h1V71.9z M95,78.8h-1v-5.9h1V78.8z"/>
			<path class="st2" d="M98.9,80.7c-0.4,0-0.8,0-1.1-0.1c-0.3-0.1-0.6-0.1-0.8-0.2v-0.9c0.2,0.1,0.4,0.1,0.8,0.2
				c0.4,0,0.7,0.1,1.1,0.1c0.6,0,1-0.1,1.2-0.3c0.2-0.2,0.3-0.6,0.3-1.2v-0.4c-0.3,0.2-0.6,0.3-0.9,0.4c-0.3,0.1-0.7,0.1-1,0.1
				c-0.8,0-1.3-0.2-1.7-0.7c-0.3-0.4-0.5-1.1-0.5-2.1c0-1,0.2-1.7,0.6-2.1c0.4-0.4,1.2-0.6,2.2-0.6c0.4,0,0.8,0,1.2,0.1
				c0.4,0,0.8,0.1,1.1,0.2v4.9c0,1-0.2,1.7-0.5,2.2C100.4,80.5,99.8,80.7,98.9,80.7z M99.1,73.7c-0.8,0-1.3,0.1-1.5,0.4
				s-0.4,0.8-0.4,1.5c0,0.7,0.1,1.2,0.3,1.5c0.2,0.3,0.6,0.4,1.2,0.4c0.3,0,0.5,0,0.8-0.1c0.3-0.1,0.6-0.2,0.8-0.3v-3.2
				c-0.2,0-0.4-0.1-0.6-0.1C99.5,73.7,99.3,73.7,99.1,73.7z"/>
			<path class="st2" d="M103.9,71.9h-1v-1h1V71.9z M103.9,78.8h-1v-5.9h1V78.8z"/>
			<path class="st2" d="M108.9,77.9v0.8c-0.1,0.1-0.3,0.1-0.5,0.1c-0.2,0-0.4,0.1-0.6,0.1c-0.7,0-1.2-0.2-1.5-0.5
				c-0.3-0.3-0.5-0.9-0.5-1.6v-3h-0.9v-0.8h0.9l0.2-1.4h0.8v1.4h2.1v0.8h-2.1v3c0,0.5,0.1,0.8,0.3,1c0.2,0.2,0.5,0.3,0.9,0.3
				c0.1,0,0.3,0,0.5,0C108.6,77.9,108.8,77.9,108.9,77.9z"/>
			<path class="st2" d="M111.2,78.9c-0.6,0-1-0.1-1.3-0.4c-0.3-0.3-0.4-0.7-0.4-1.4c0-0.6,0.2-1.1,0.5-1.3c0.3-0.3,0.9-0.4,1.7-0.4
				c0.3,0,0.5,0,0.8,0c0.3,0,0.5,0.1,0.7,0.1v-0.6c0-0.4-0.1-0.7-0.3-0.9c-0.2-0.2-0.6-0.3-1.1-0.3c-0.4,0-0.7,0-1,0
				c-0.3,0-0.6,0.1-0.8,0.1V73c0.3-0.1,0.6-0.1,1-0.2c0.3,0,0.7,0,1.1,0c0.7,0,1.2,0.2,1.6,0.5c0.3,0.3,0.5,0.8,0.5,1.5v4h-0.9
				l0-0.5h0c-0.2,0.2-0.5,0.3-0.9,0.5C111.9,78.8,111.6,78.9,111.2,78.9z M111.8,76.1c-0.5,0-0.9,0.1-1.1,0.2
				c-0.2,0.1-0.3,0.4-0.3,0.7c0,0.3,0.1,0.6,0.3,0.8c0.2,0.2,0.5,0.2,0.9,0.2c0.3,0,0.6,0,0.9-0.1c0.3-0.1,0.6-0.2,0.8-0.4v-1.3
				c-0.3,0-0.5-0.1-0.7-0.1C112.3,76.1,112,76.1,111.8,76.1z"/>
			<path class="st2" d="M116.7,70.9v7.9h-1v-7.9H116.7z"/>
			<path class="st2" d="M123.2,75.7l-1.8-0.4c-0.5-0.1-0.9-0.3-1.1-0.6c-0.2-0.3-0.3-0.7-0.3-1.2c0-0.8,0.2-1.3,0.6-1.7
				c0.4-0.4,1.1-0.5,2-0.5c0.4,0,0.7,0,1,0.1c0.3,0,0.6,0.1,0.8,0.2v0.9c-0.3-0.1-0.6-0.1-0.9-0.2c-0.3,0-0.6,0-0.9,0
				c-0.6,0-1,0.1-1.3,0.3c-0.2,0.2-0.4,0.5-0.4,0.9c0,0.3,0.1,0.5,0.2,0.6c0.1,0.1,0.3,0.3,0.6,0.3l1.8,0.4c0.6,0.2,1.1,0.4,1.3,0.6
				c0.2,0.3,0.3,0.7,0.3,1.3c0,0.8-0.2,1.4-0.6,1.7c-0.4,0.3-1.1,0.5-2,0.5c-0.5,0-0.9,0-1.4-0.1c-0.4-0.1-0.8-0.1-1.1-0.2v-1
				c0.4,0.1,0.8,0.2,1.2,0.3c0.4,0.1,0.8,0.1,1.3,0.1c0.6,0,1-0.1,1.2-0.3c0.2-0.2,0.4-0.5,0.4-1c0-0.3-0.1-0.5-0.2-0.7
				S123.6,75.7,123.2,75.7z"/>
			<path class="st2" d="M128.2,78.9c-0.6,0-1.1-0.2-1.5-0.5c-0.3-0.3-0.5-0.8-0.5-1.5v-4h1v3.9c0,0.4,0.1,0.7,0.3,0.9
				c0.2,0.2,0.5,0.3,1,0.3c0.3,0,0.5,0,0.8-0.1c0.3-0.1,0.5-0.2,0.8-0.3v-4.6h1v5.9h-0.9l0-0.5h0c-0.4,0.2-0.8,0.4-1.1,0.5
				C128.8,78.8,128.5,78.9,128.2,78.9z"/>
			<path class="st2" d="M133.6,78.8h-1v-5.9h0.9l0,0.5h0c0.3-0.2,0.6-0.3,0.9-0.4c0.3-0.1,0.6-0.1,0.9-0.1c0.1,0,0.2,0,0.3,0
				c0,0,0.1,0,0.1,0v0.9c-0.1,0-0.1,0-0.2,0c-0.1,0-0.2,0-0.4,0c-0.3,0-0.6,0-0.8,0.1c-0.3,0.1-0.5,0.2-0.8,0.3V78.8z"/>
			<path class="st2" d="M137.2,73.7h-0.9v-0.8h0.9v-0.1c0-0.7,0.2-1.2,0.5-1.5c0.3-0.3,0.8-0.5,1.4-0.5c0.1,0,0.3,0,0.4,0
				c0.1,0,0.3,0,0.4,0.1v0.8c-0.1,0-0.2,0-0.3-0.1c-0.1,0-0.2,0-0.4,0c-0.4,0-0.6,0.1-0.8,0.2c-0.2,0.2-0.2,0.5-0.2,0.9v0.2h1.5v0.8
				h-1.5v5h-1V73.7z M141.9,71.9h-1v-1h1V71.9z M141.9,78.8h-1v-5.9h1V78.8z"/>
			<path class="st2" d="M144.4,78.8h-1v-5.9h0.8l0,0.6h0c0.3-0.2,0.6-0.4,1-0.5c0.3-0.1,0.7-0.2,1.2-0.2c0.6,0,1.1,0.2,1.5,0.5
				c0.3,0.3,0.5,0.8,0.5,1.4v4.1h-1v-3.9c0-0.4-0.1-0.7-0.3-0.9c-0.2-0.2-0.6-0.3-1-0.3c-0.3,0-0.6,0-0.9,0.1
				c-0.3,0.1-0.6,0.2-0.9,0.4V78.8z"/>
			<path class="st2" d="M152.4,80.7c-0.4,0-0.8,0-1.1-0.1c-0.3-0.1-0.6-0.1-0.8-0.2v-0.9c0.2,0.1,0.4,0.1,0.8,0.2
				c0.4,0,0.7,0.1,1.1,0.1c0.6,0,1-0.1,1.2-0.3c0.2-0.2,0.3-0.6,0.3-1.2v-0.4c-0.3,0.2-0.6,0.3-0.9,0.4c-0.3,0.1-0.7,0.1-1,0.1
				c-0.8,0-1.3-0.2-1.7-0.7c-0.3-0.4-0.5-1.1-0.5-2.1c0-1,0.2-1.7,0.6-2.1c0.4-0.4,1.2-0.6,2.2-0.6c0.4,0,0.8,0,1.2,0.1
				c0.4,0,0.8,0.1,1.1,0.2v4.9c0,1-0.2,1.7-0.5,2.2C154,80.5,153.3,80.7,152.4,80.7z M152.6,73.7c-0.8,0-1.3,0.1-1.5,0.4
				c-0.2,0.3-0.4,0.8-0.4,1.5c0,0.7,0.1,1.2,0.3,1.5c0.2,0.3,0.6,0.4,1.2,0.4c0.3,0,0.5,0,0.8-0.1c0.3-0.1,0.6-0.2,0.8-0.3v-3.2
				c-0.2,0-0.4-0.1-0.6-0.1C153.1,73.7,152.9,73.7,152.6,73.7z"/>
			<path class="st2" d="M163.5,77.8v0.9h-4.9v-7.4h4.8v0.9h-3.8v2.3h3.4v0.9h-3.4v2.4H163.5z"/>
			<path class="st2" d="M167.1,75.7l2,3.1H168l-1.5-2.4l-1.5,2.4h-1l2-3l-1.9-2.8h1.2l1.3,2.2l1.4-2.2h1L167.1,75.7z"/>
			<path class="st2" d="M170.9,80.6h-1v-7.7h0.8l0.1,0.5h0c0.2-0.2,0.5-0.4,0.9-0.5s0.7-0.2,1.1-0.2c0.8,0,1.4,0.2,1.7,0.7
				c0.3,0.5,0.5,1.3,0.5,2.3c0,1.1-0.2,1.9-0.6,2.3s-1.1,0.7-2.1,0.7c-0.3,0-0.6,0-0.8-0.1c-0.2,0-0.5-0.1-0.6-0.2V80.6z
				 M174.1,75.8c0-0.8-0.1-1.4-0.3-1.7c-0.2-0.3-0.6-0.5-1.3-0.5c-0.3,0-0.6,0-0.8,0.1c-0.3,0.1-0.5,0.2-0.8,0.4v3.6
				c0.2,0.1,0.4,0.1,0.6,0.2c0.2,0,0.4,0.1,0.7,0.1c0.7,0,1.2-0.2,1.5-0.5C174,77.2,174.1,76.6,174.1,75.8z"/>
			<path class="st2" d="M180.8,77.6v0.8c-0.2,0.1-0.5,0.2-0.9,0.3c-0.4,0.1-0.8,0.1-1.2,0.1c-0.9,0-1.6-0.2-2-0.7s-0.6-1.3-0.6-2.4
				c0-1.1,0.2-1.8,0.6-2.3c0.4-0.5,1.1-0.7,2-0.7c0.8,0,1.4,0.2,1.8,0.6c0.4,0.4,0.5,1,0.5,1.9c0,0.2,0,0.3,0,0.4c0,0.1,0,0.3,0,0.5
				h-3.9c0,0.6,0.1,1.1,0.4,1.4c0.3,0.3,0.7,0.4,1.3,0.4c0.3,0,0.7,0,1.1-0.1C180.3,77.8,180.6,77.7,180.8,77.6z M180.2,75.1
				c0-0.5-0.1-0.9-0.3-1.1c-0.2-0.2-0.6-0.3-1.1-0.3c-0.6,0-1,0.1-1.2,0.4c-0.2,0.2-0.4,0.7-0.4,1.3h3.1c0,0,0-0.1,0-0.1
				C180.2,75.2,180.2,75.1,180.2,75.1z"/>
			<path class="st2" d="M183.3,78.8h-1v-5.9h0.9l0,0.5h0c0.3-0.2,0.6-0.3,0.9-0.4c0.3-0.1,0.6-0.1,0.9-0.1c0.1,0,0.2,0,0.3,0
				c0,0,0.1,0,0.1,0v0.9c-0.1,0-0.1,0-0.2,0c-0.1,0-0.2,0-0.4,0c-0.3,0-0.6,0-0.8,0.1c-0.3,0.1-0.5,0.2-0.8,0.3V78.8z"/>
			<path class="st2" d="M189.9,77.9v0.8c-0.1,0.1-0.3,0.1-0.5,0.1c-0.2,0-0.4,0.1-0.6,0.1c-0.7,0-1.2-0.2-1.5-0.5
				c-0.3-0.3-0.5-0.9-0.5-1.6v-3h-0.9v-0.8h0.9l0.2-1.4h0.8v1.4h2.1v0.8h-2.1v3c0,0.5,0.1,0.8,0.3,1c0.2,0.2,0.5,0.3,0.9,0.3
				c0.1,0,0.3,0,0.5,0C189.7,77.9,189.8,77.9,189.9,77.9z"/>
		</g>
	</g>
</g>
</svg>
